# xmcd
#
# Track frame offsets: 
#        150
#        13420
#        27922
#        41997
#        53510
#        64122
#        76555
#        86110
#        97420
#        113745
#        125452
#
# Disc length: 1843 seconds
#
# Revision: 1
# Processed by: cddbd v1.4PL0 Copyright (c) Steve Scherf et al.
# Submitted via: ExactAudioCopy v0.90b3
#
DISCID=8f07310b
DTITLE=Chris LeDoux - Songs Of Rodeo And Country
DYEAR=1973
DGENRE=Country
TTITLE0=The Buckskin Lady
TTITLE1=Oklahoma Joe
TTITLE2=Daydream Cowboy
TTITLE3=Rodeo, You've Cast A Spell
TTITLE4=True Western Movie
TTITLE5=Joade The Rodeo Clown
TTITLE6=Mighty Lucky Man
TTITLE7=Easy Come, Easy Go
TTITLE8=The Only Road You Know
TTITLE9=She's In Love With A Rodeo Man
TTITLE10=Real Live Buckeroo
EXTD=
EXTT0=
EXTT1=
EXTT2=
EXTT3=
EXTT4=
EXTT5=
EXTT6=
EXTT7=
EXTT8=
EXTT9=
EXTT10=
PLAYORDER=
